<mxfile host="drawio-plugin" modified="2021-05-10T14:22:37.920Z" agent="5.0 (X11; Linux x86_64) AppleWebKit/537.36 (KHTML, like Gecko) Chrome/87.0.4280.141 Safari/537.36" version="13.7.9" etag="dDMLbNnCjmwnmdBDIOMw" type="embed"><diagram id="szbIZGtiw6nNnVDIqoAg" name="Page-1"><mxGraphModel dx="1150" dy="628" grid="1" gridSize="10" guides="1" tooltips="1" connect="1" arrows="1" fold="1" page="1" pageScale="1" pageWidth="1169" pageHeight="827" math="0" shadow="0"><root><mxCell id="0"/><mxCell id="1" parent="0"/><mxCell id="5" value="Comandos SQL" style="whiteSpace=wrap;html=1;rounded=1;shadow=1;strokeWidth=1;fontSize=16;align=center;fillColor=#f5f5f5;strokeColor=#666666;" vertex="1" parent="1"><mxGeometry x="532" y="30" width="510" height="40" as="geometry"/></mxCell><mxCell id="6" value="&lt;b&gt;DQL&lt;/b&gt;&lt;br&gt;Data Query Language" style="whiteSpace=wrap;html=1;rounded=1;shadow=1;strokeWidth=1;fontSize=16;align=center;fillColor=#f5f5f5;strokeColor=#666666;" vertex="1" parent="1"><mxGeometry x="342" y="110" width="275" height="40" as="geometry"/></mxCell><mxCell id="7" value="&lt;b&gt;DML&lt;/b&gt;&lt;br&gt;Data Manipulation Language" style="whiteSpace=wrap;html=1;rounded=1;shadow=1;strokeWidth=1;fontSize=16;align=center;fillColor=#f5f5f5;strokeColor=#666666;" vertex="1" parent="1"><mxGeometry x="657" y="110" width="275" height="40" as="geometry"/></mxCell><mxCell id="8" value="&lt;b&gt;DDL&lt;br&gt;&lt;/b&gt;Data Definition Language" style="whiteSpace=wrap;html=1;rounded=1;shadow=1;strokeWidth=1;fontSize=16;align=center;fillColor=#f5f5f5;strokeColor=#666666;" vertex="1" parent="1"><mxGeometry x="20" y="110" width="275" height="40" as="geometry"/></mxCell><mxCell id="9" value="&lt;b&gt;DCL&lt;/b&gt;&lt;br&gt;Data Control Lanaguage" style="whiteSpace=wrap;html=1;rounded=1;shadow=1;strokeWidth=1;fontSize=16;align=center;fillColor=#f5f5f5;strokeColor=#666666;" vertex="1" parent="1"><mxGeometry x="1310" y="110" width="275" height="40" as="geometry"/></mxCell><mxCell id="12" value="SELECT" style="whiteSpace=wrap;html=1;rounded=1;shadow=1;strokeWidth=1;fontSize=16;align=center;fillColor=#f5f5f5;strokeColor=#666666;" vertex="1" parent="1"><mxGeometry x="492" y="180" width="125" height="80" as="geometry"/></mxCell><mxCell id="14" value="&lt;span&gt;SELECT&lt;/span&gt;" style="whiteSpace=wrap;html=1;rounded=1;shadow=1;strokeWidth=1;fontSize=16;align=center;fillColor=#f5f5f5;strokeColor=#666666;" vertex="1" parent="1"><mxGeometry x="807" y="180" width="125" height="80" as="geometry"/></mxCell><mxCell id="16" value="CREATE" style="whiteSpace=wrap;html=1;rounded=1;shadow=1;strokeWidth=1;fontSize=16;align=center;fillColor=#f5f5f5;strokeColor=#666666;" vertex="1" parent="1"><mxGeometry x="170" y="180" width="125" height="80" as="geometry"/></mxCell><mxCell id="17" value="REVOKE" style="whiteSpace=wrap;html=1;rounded=1;shadow=1;strokeWidth=1;fontSize=16;align=center;fillColor=#f5f5f5;strokeColor=#666666;" vertex="1" parent="1"><mxGeometry x="1460" y="290" width="125" height="80" as="geometry"/></mxCell><mxCell id="18" value="GRANT" style="whiteSpace=wrap;html=1;rounded=1;shadow=1;strokeWidth=1;fontSize=16;align=center;fillColor=#f5f5f5;strokeColor=#666666;" vertex="1" parent="1"><mxGeometry x="1460" y="180" width="125" height="80" as="geometry"/></mxCell><mxCell id="24" value="&lt;span&gt;INSERT&lt;/span&gt;" style="whiteSpace=wrap;html=1;rounded=1;shadow=1;strokeWidth=1;fontSize=16;align=center;fillColor=#f5f5f5;strokeColor=#666666;" vertex="1" parent="1"><mxGeometry x="807" y="290" width="125" height="80" as="geometry"/></mxCell><mxCell id="29" value="DELETE" style="whiteSpace=wrap;html=1;rounded=1;shadow=1;strokeWidth=1;fontSize=16;align=center;fillColor=#f5f5f5;strokeColor=#666666;" vertex="1" parent="1"><mxGeometry x="807" y="510" width="125" height="80" as="geometry"/></mxCell><mxCell id="40" value="ALTER" style="whiteSpace=wrap;html=1;rounded=1;shadow=1;strokeWidth=1;fontSize=16;align=center;fillColor=#f5f5f5;strokeColor=#666666;" vertex="1" parent="1"><mxGeometry x="171" y="290" width="125" height="80" as="geometry"/></mxCell><mxCell id="43" value="&lt;span&gt;UPDATE&lt;/span&gt;" style="whiteSpace=wrap;html=1;rounded=1;shadow=1;strokeWidth=1;fontSize=16;align=center;fillColor=#f5f5f5;strokeColor=#666666;" vertex="1" parent="1"><mxGeometry x="807" y="400" width="125" height="80" as="geometry"/></mxCell><mxCell id="49" style="edgeStyle=orthogonalEdgeStyle;html=1;startSize=6;endFill=0;endSize=6;strokeWidth=1;fontSize=16;rounded=0;endArrow=none;" edge="1" parent="1" source="5" target="6"><mxGeometry relative="1" as="geometry"><Array as="points"><mxPoint x="788" y="85"/><mxPoint x="480" y="85"/></Array></mxGeometry></mxCell><mxCell id="50" style="edgeStyle=elbowEdgeStyle;html=1;startSize=6;endFill=0;endSize=6;strokeWidth=1;fontSize=16;rounded=0;endArrow=none;" edge="1" parent="1" source="5" target="7"><mxGeometry relative="1" as="geometry"><Array as="points"><mxPoint x="787" y="90"/></Array></mxGeometry></mxCell><mxCell id="51" style="edgeStyle=orthogonalEdgeStyle;html=1;startSize=6;endFill=0;endSize=6;strokeWidth=1;fontSize=16;rounded=0;endArrow=none;exitX=0.5;exitY=1;" edge="1" parent="1" source="5" target="8"><mxGeometry relative="1" as="geometry"><Array as="points"><mxPoint x="787" y="85"/><mxPoint x="162" y="85"/></Array></mxGeometry></mxCell><mxCell id="52" style="edgeStyle=orthogonalEdgeStyle;html=1;startSize=6;endFill=0;endSize=6;strokeWidth=1;fontSize=16;rounded=0;endArrow=none;entryX=0.5;entryY=0;entryDx=0;entryDy=0;" edge="1" parent="1" source="5" target="9"><mxGeometry relative="1" as="geometry"><Array as="points"><mxPoint x="787" y="85"/><mxPoint x="1448" y="85"/></Array></mxGeometry></mxCell><mxCell id="58" style="edgeStyle=orthogonalEdgeStyle;html=1;startSize=6;endFill=0;endSize=6;strokeWidth=1;fontSize=16;rounded=0;entryX=0;entryY=0.5;endArrow=none;" edge="1" parent="1" source="6" target="12"><mxGeometry relative="1" as="geometry"><Array as="points"><mxPoint x="480" y="220"/></Array></mxGeometry></mxCell><mxCell id="63" style="edgeStyle=orthogonalEdgeStyle;html=1;startSize=6;endFill=0;endSize=6;strokeWidth=1;fontSize=16;rounded=0;endArrow=none;entryX=0;entryY=0.5;entryDx=0;entryDy=0;" edge="1" parent="1" source="7" target="29"><mxGeometry relative="1" as="geometry"><Array as="points"><mxPoint x="795" y="440"/><mxPoint x="795" y="550"/></Array></mxGeometry></mxCell><mxCell id="65" style="edgeStyle=orthogonalEdgeStyle;html=1;startSize=6;endFill=0;endSize=6;strokeWidth=1;fontSize=16;rounded=0;endArrow=none;entryX=0;entryY=0.5;" edge="1" parent="1" source="7" target="14"><mxGeometry relative="1" as="geometry"><Array as="points"><mxPoint x="794" y="220"/></Array></mxGeometry></mxCell><mxCell id="66" style="edgeStyle=orthogonalEdgeStyle;html=1;startSize=6;endFill=0;endSize=6;strokeWidth=1;fontSize=16;rounded=0;endArrow=none;entryX=0;entryY=0.5;" edge="1" parent="1" source="7" target="24"><mxGeometry relative="1" as="geometry"><Array as="points"><mxPoint x="794" y="330"/></Array></mxGeometry></mxCell><mxCell id="67" style="edgeStyle=orthogonalEdgeStyle;html=1;startSize=6;endFill=0;endSize=6;strokeWidth=1;fontSize=16;rounded=0;endArrow=none;entryX=0;entryY=0.5;" edge="1" parent="1" source="7" target="43"><mxGeometry relative="1" as="geometry"><Array as="points"><mxPoint x="794" y="440"/></Array></mxGeometry></mxCell><mxCell id="70" style="edgeStyle=orthogonalEdgeStyle;html=1;startSize=6;endFill=0;endSize=6;strokeWidth=1;fontSize=16;rounded=0;endArrow=none;entryX=0;entryY=0.5;" edge="1" parent="1" source="8" target="16"><mxGeometry relative="1" as="geometry"><Array as="points"><mxPoint x="157" y="220"/></Array></mxGeometry></mxCell><mxCell id="71" style="edgeStyle=orthogonalEdgeStyle;html=1;startSize=6;endFill=0;endSize=6;strokeWidth=1;fontSize=16;rounded=0;endArrow=none;entryX=0;entryY=0.5;" edge="1" parent="1" source="8" target="40"><mxGeometry relative="1" as="geometry"><Array as="points"><mxPoint x="157" y="330"/></Array></mxGeometry></mxCell><mxCell id="72" style="edgeStyle=orthogonalEdgeStyle;html=1;startSize=6;endFill=0;endSize=6;strokeWidth=1;fontSize=16;rounded=0;endArrow=none;entryX=-0.005;entryY=0.588;entryDx=0;entryDy=0;entryPerimeter=0;" edge="1" parent="1" source="9" target="17"><mxGeometry relative="1" as="geometry"><Array as="points"><mxPoint x="1448" y="220"/><mxPoint x="1448" y="337"/></Array></mxGeometry></mxCell><mxCell id="73" style="edgeStyle=orthogonalEdgeStyle;html=1;startSize=6;endFill=0;endSize=6;strokeWidth=1;fontSize=16;rounded=0;endArrow=none;entryX=0;entryY=0.5;" edge="1" parent="1" source="9" target="18"><mxGeometry relative="1" as="geometry"><Array as="points"><mxPoint x="1448" y="220"/></Array></mxGeometry></mxCell><mxCell id="88" value="DROP" style="whiteSpace=wrap;html=1;rounded=1;shadow=1;strokeWidth=1;fontSize=16;align=center;fillColor=#f5f5f5;strokeColor=#666666;" vertex="1" parent="1"><mxGeometry x="170" y="400" width="125" height="80" as="geometry"/></mxCell><mxCell id="168" style="edgeStyle=orthogonalEdgeStyle;html=1;startSize=6;endFill=0;endSize=6;strokeWidth=1;fontSize=16;rounded=0;endArrow=none;entryX=0;entryY=0.5;exitX=0.5;exitY=1;exitDx=0;exitDy=0;entryDx=0;entryDy=0;" edge="1" parent="1" source="8" target="88"><mxGeometry relative="1" as="geometry"><Array as="points"><mxPoint x="158" y="340"/><mxPoint x="158" y="440"/></Array><mxPoint x="167.42857142857156" y="160" as="sourcePoint"/><mxPoint x="181" y="340" as="targetPoint"/></mxGeometry></mxCell><mxCell id="170" value="&lt;b&gt;DCL&lt;/b&gt;&lt;br&gt;Data Control Lanaguage" style="whiteSpace=wrap;html=1;rounded=1;shadow=1;strokeWidth=1;fontSize=16;align=center;fillColor=#f5f5f5;strokeColor=#666666;" vertex="1" parent="1"><mxGeometry x="982.94" y="110" width="275" height="40" as="geometry"/></mxCell><mxCell id="171" value="COMMIT" style="whiteSpace=wrap;html=1;rounded=1;shadow=1;strokeWidth=1;fontSize=16;align=center;fillColor=#f5f5f5;strokeColor=#666666;" vertex="1" parent="1"><mxGeometry x="1132.94" y="290" width="125" height="80" as="geometry"/></mxCell><mxCell id="172" value="BEGIN&lt;br&gt;TRANSACTION" style="whiteSpace=wrap;html=1;rounded=1;shadow=1;strokeWidth=1;fontSize=16;align=center;fillColor=#f5f5f5;strokeColor=#666666;" vertex="1" parent="1"><mxGeometry x="1132.94" y="180" width="125" height="80" as="geometry"/></mxCell><mxCell id="173" style="edgeStyle=orthogonalEdgeStyle;html=1;startSize=6;endFill=0;endSize=6;strokeWidth=1;fontSize=16;rounded=0;endArrow=none;entryX=0.5;entryY=0;entryDx=0;entryDy=0;" edge="1" parent="1" target="170"><mxGeometry relative="1" as="geometry"><Array as="points"><mxPoint x="790" y="70"/><mxPoint x="790" y="85"/><mxPoint x="1120" y="85"/></Array><mxPoint x="790" y="70" as="sourcePoint"/></mxGeometry></mxCell><mxCell id="174" style="edgeStyle=orthogonalEdgeStyle;html=1;startSize=6;endFill=0;endSize=6;strokeWidth=1;fontSize=16;rounded=0;endArrow=none;entryX=-0.005;entryY=0.588;entryDx=0;entryDy=0;entryPerimeter=0;" edge="1" parent="1" source="170" target="171"><mxGeometry relative="1" as="geometry"><Array as="points"><mxPoint x="1120.94" y="220"/><mxPoint x="1120.94" y="337"/></Array></mxGeometry></mxCell><mxCell id="175" style="edgeStyle=orthogonalEdgeStyle;html=1;startSize=6;endFill=0;endSize=6;strokeWidth=1;fontSize=16;rounded=0;endArrow=none;entryX=0;entryY=0.5;" edge="1" parent="1" source="170" target="172"><mxGeometry relative="1" as="geometry"><Array as="points"><mxPoint x="1120.94" y="220"/></Array></mxGeometry></mxCell><mxCell id="176" value="ROLLBACK" style="whiteSpace=wrap;html=1;rounded=1;shadow=1;strokeWidth=1;fontSize=16;align=center;fillColor=#f5f5f5;strokeColor=#666666;" vertex="1" parent="1"><mxGeometry x="1132.94" y="400" width="125" height="80" as="geometry"/></mxCell><mxCell id="177" style="edgeStyle=orthogonalEdgeStyle;html=1;startSize=6;endFill=0;endSize=6;strokeWidth=1;fontSize=16;rounded=0;endArrow=none;entryX=-0.005;entryY=0.588;entryDx=0;entryDy=0;entryPerimeter=0;" edge="1" parent="1"><mxGeometry relative="1" as="geometry"><Array as="points"><mxPoint x="1121.5700000000002" y="320"/><mxPoint x="1121.5700000000002" y="437"/></Array><mxPoint x="1121.0300000000002" y="250" as="sourcePoint"/><mxPoint x="1132.9450000000002" y="437.03999999999996" as="targetPoint"/></mxGeometry></mxCell></root></mxGraphModel></diagram></mxfile>